<svg width="24" height="24" viewBox="0 0 27 21" fill="none" xmlns="http://www.w3.org/2000/svg" aria-label="takeUforward" role="img"><path d="M20.0547 3.09322C21.0405 3.02285 22.2162 3.05106 23.2192 3.04703C24.4527 4.62342 25.6328 6.85019 26.8535 8.50655C26.0441 9.18308 21.1301 13.7002 20.6141 13.9252C19.1581 14.0093 17.4455 13.9447 15.9713 13.9598C12.5963 13.9942 9.17458 13.9124 5.80447 13.966C5.29149 15.9429 4.60527 18.8116 4.23645 20.8052L0 20.798V20.6486C0.288055 19.6736 0.537812 18.4533 0.768622 17.4491L2.04101 11.8766C2.37695 10.4052 2.61524 8.96821 3.25319 7.51645C5.92211 1.44265 12.6659 3.39408 17.866 3.05693C18.4713 3.01767 19.4708 3.03728 20.0547 3.09322ZM6.91816 9.96297L18.472 9.96852C18.1908 11.1543 17.772 12.7166 17.574 13.8851C19.4172 12.1301 21.6293 10.1523 23.5641 8.50263C22.3944 6.75206 21.2514 4.87418 20.0647 3.15983C19.7143 4.32493 19.3681 5.92785 19.1198 7.13862L12.6642 7.19262C9.4686 7.22867 8.2533 6.70353 6.91816 9.96297Z" fill="white"/><path d="M20.0549 3.09328C21.0407 3.02291 22.2164 3.05112 23.2194 3.04709C24.4529 4.62349 25.633 6.85026 26.8537 8.50661C26.0443 9.18314 21.1304 13.7003 20.6143 13.9252C19.7723 13.9016 18.3223 13.9696 17.5742 13.8851C19.4174 12.1302 21.6295 10.1524 23.5643 8.50269C22.3946 6.75212 21.2516 4.87425 20.0649 3.15989L20.0549 3.09328Z" fill="#327CF6"/></svg>
